<?xml version="1.0" encoding="utf-8"?>
<!-- Generator: Adobe Illustrator 21.1.0, SVG Export Plug-In . SVG Version: 6.00 Build 0)  -->
<svg version="1.1" id="Lager_1" xmlns="http://www.w3.org/2000/svg" xmlns:xlink="http://www.w3.org/1999/xlink" x="0px" y="0px"
	 viewBox="0 0 46 45" style="enable-background:new 0 0 46 45;" xml:space="preserve">
<style type="text/css">
	.st0{display:none;}
</style>
<g>
	<path id="path-0" class="st0" d="M8.1,7.9c-8,8-8,20.9,0,28.9c8,8,20.9,8,28.9,0c8-8,8-20.9,0-28.9C29-0.1,16-0.1,8.1,7.9z
		 M34.7,34.5c-6.7,6.7-17.7,6.7-24.4,0c-6.7-6.7-6.7-17.7,0-24.4c6.7-6.7,17.7-6.7,24.4,0C41.4,16.9,41.4,27.8,34.7,34.5z
		 M32.3,25.4c0.1,0.2,0.1,0.4,0,0.5c-1.6,3.8-5.5,6.3-9.8,6.3c-4.4,0-8.3-2.5-9.9-6.3c-0.1-0.2-0.1-0.4,0.1-0.5
		c0.1-0.2,0.3-0.2,0.5-0.2c0,0,0,0,0,0l18.7,0C32,25.2,32.2,25.3,32.3,25.4z M14.8,16.2c0-0.4,0.1-0.8,0.4-1.1
		c0.3-0.4,0.6-0.6,1-0.6c0.4,0,0.7,0.2,1,0.5c0.3-0.3,0.6-0.5,1-0.5c0.4,0,0.8,0.2,1,0.6c0.2,0.3,0.4,0.8,0.4,1.1
		c0,0.6-0.4,1.3-1.2,2.1c-0.5,0.6-1.1,0.9-1.1,0.9c-0.1,0-0.1,0.1-0.2,0.1c-0.1,0-0.1,0-0.2-0.1C17,19.2,14.8,17.7,14.8,16.2z
		 M25.7,16.2c0-0.4,0.1-0.8,0.4-1.1c0.3-0.4,0.6-0.6,1-0.6c0.4,0,0.7,0.2,1,0.5c0.3-0.3,0.6-0.5,1-0.5c0.4,0,0.8,0.2,1,0.6
		c0.2,0.3,0.4,0.8,0.4,1.1c0,0.6-0.4,1.3-1.2,2.1c-0.5,0.6-1.1,0.9-1.1,0.9c-0.1,0-0.1,0.1-0.2,0.1c-0.1,0-0.1,0-0.2-0.1
		C27.8,19.2,25.7,17.7,25.7,16.2z"/>
	<path id="path-1" class="st0" d="M36.8,8C28.9,0.2,16.1,0.2,8.2,8c-7.9,7.9-7.9,20.7,0,28.6c7.9,7.9,20.7,7.9,28.6,0
		C44.7,28.7,44.7,15.9,36.8,8z M34.6,34.4c-6.7,6.7-17.5,6.7-24.2,0c-6.7-6.7-6.7-17.5,0-24.2c6.7-6.7,17.5-6.7,24.2,0
		C41.2,16.9,41.2,27.8,34.6,34.4z M14.4,16.4c-0.1-0.1-0.1-0.2-0.1-0.3c0-0.1,0.1-0.2,0.2-0.2l1.8-0.3l0.8-1.7
		c0-0.1,0.1-0.2,0.2-0.2c0.1,0,0.2,0.1,0.2,0.2l0.8,1.7l1.8,0.3c0.1,0,0.2,0.1,0.2,0.2c0,0.1,0,0.2-0.1,0.3L19,17.7l0.3,1.9
		c0,0.1,0,0.2-0.1,0.3c0,0-0.1,0-0.2,0c0,0-0.1,0-0.1,0L17.3,19l-1.6,0.9c-0.1,0-0.2,0-0.3,0c-0.1-0.1-0.1-0.2-0.1-0.3l0.3-1.9
		L14.4,16.4z M25.1,16.4C25,16.3,25,16.2,25,16.1c0-0.1,0.1-0.2,0.2-0.2l1.8-0.3l0.8-1.7c0-0.1,0.1-0.2,0.2-0.2
		c0.1,0,0.2,0.1,0.2,0.2l0.8,1.7l1.8,0.3c0.1,0,0.2,0.1,0.2,0.2c0,0.1,0,0.2-0.1,0.3l-1.3,1.3l0.3,1.8c0,0.1,0,0.2-0.1,0.3
		c0,0-0.1,0-0.2,0c0,0-0.1,0-0.1,0L28,19l-1.6,0.9c-0.1,0-0.2,0-0.3,0c-0.1-0.1-0.1-0.2-0.1-0.3l0.3-1.8L25.1,16.4z M32.2,25.4
		c0.1,0.2,0.1,0.3,0,0.5c-1.6,3.8-5.5,6.2-9.7,6.2c-4.4,0-8.2-2.4-9.8-6.2c-0.1-0.2-0.1-0.4,0-0.5c0.1-0.2,0.3-0.2,0.5-0.2
		c0,0,0,0,0,0l18.5,0C31.9,25.1,32.1,25.2,32.2,25.4z"/>
	<path id="path-2" d="M36.6,8.2c-7.8-7.8-20.4-7.8-28.2,0c-7.8,7.8-7.8,20.4,0,28.2c7.8,7.8,20.4,7.8,28.2,0
		C44.4,28.7,44.4,16,36.6,8.2z M34.4,34.3c-6.6,6.6-17.3,6.6-23.9,0C4,27.7,4,17,10.6,10.4c6.6-6.6,17.3-6.6,23.9,0
		C41,17,41,27.7,34.4,34.3z M15.1,16.9c0-1.3,1-2.3,2.3-2.3c1.3,0,2.3,1,2.3,2.3c0,1.3-1,2.3-2.3,2.3C16.1,19.3,15.1,18.2,15.1,16.9
		z M25.6,16.9c0-1.3,1-2.3,2.3-2.3c1.3,0,2.3,1,2.3,2.3c0,1.3-1,2.3-2.3,2.3C26.7,19.3,25.6,18.2,25.6,16.9z M31.1,26.5
		c-1.4,3.3-4.8,5.5-8.6,5.5c-3.9,0-7.3-2.2-8.7-5.5c-0.2-0.6,0-1.2,0.6-1.5c0.1-0.1,0.3-0.1,0.4-0.1c0.4,0,0.9,0.3,1,0.7
		c1,2.5,3.6,4.1,6.6,4.1c2.9,0,5.5-1.6,6.5-4.1c0.2-0.6,0.9-0.8,1.5-0.6C31.1,25.2,31.4,25.9,31.1,26.5z"/>
	<path id="path-3" class="st0" d="M8,7.8C0,15.7,0,28.6,8,36.6c7.9,7.9,20.9,7.9,28.8,0c7.9-7.9,7.9-20.9,0-28.8
		C28.8-0.1,15.9-0.1,8,7.8z M34.5,34.4c-6.7,6.7-17.6,6.7-24.3,0c-6.7-6.7-6.7-17.6,0-24.3c6.7-6.7,17.6-6.7,24.3,0
		C41.2,16.7,41.2,27.7,34.5,34.4z M18.1,17.9H13c-0.7,0-1.2-0.5-1.2-1.2c0-0.7,0.5-1.2,1.2-1.2h5.1c0.7,0,1.2,0.5,1.2,1.2
		C19.3,17.3,18.8,17.9,18.1,17.9z M32.9,16.7c0,0.7-0.5,1.2-1.2,1.2h-5.1c-0.7,0-1.2-0.5-1.2-1.2c0-0.7,0.5-1.2,1.2-1.2h5.1
		C32.4,15.5,32.9,16,32.9,16.7z M31.2,26.4c-1.5,3.4-4.9,5.6-8.8,5.6c-4,0-7.4-2.2-8.8-5.6c-0.2-0.6,0-1.3,0.6-1.5
		c0.1-0.1,0.3-0.1,0.4-0.1c0.5,0,0.9,0.3,1.1,0.7c1.1,2.6,3.7,4.2,6.7,4.2c3,0,5.6-1.7,6.7-4.2c0.3-0.6,0.9-0.9,1.5-0.6
		C31.2,25.2,31.4,25.8,31.2,26.4z"/>
	<path id="path-4" class="st0" d="M22.5,42.9c11.3,0,20.5-9.2,20.5-20.5S33.8,1.9,22.5,1.9S2,11,2,22.4S11.2,42.9,22.5,42.9z
		 M22.5,5.7c9.2,0,16.7,7.5,16.7,16.7c0,9.2-7.5,16.7-16.7,16.7c-9.2,0-16.7-7.5-16.7-16.7C5.8,13.2,13.3,5.7,22.5,5.7z M23.7,30.3
		c5.6-1.1,10-3.7,11.5-7.1C34.4,30,28.8,35.2,22,35.2c-4.8,0-9-2.6-11.3-6.4C13.5,30.9,18.5,31.4,23.7,30.3z M27.6,15.9
		c0,2.1,1.1,3.8,2.6,3.8c1.4,0,2.6-1.7,2.6-3.8s-1.1-3.8-2.6-3.8C28.8,12.1,27.6,13.8,27.6,15.9z M16.1,16.7c-1.7,0-3.1,0.6-3.6,1.5
		c-0.1-0.2-0.2-1.3-0.2-1.6c0-1.2,1.7-2.3,3.8-2.3s3.8,1,3.8,2.3c0,0.3-0.1,1.3-0.2,1.6C19.2,17.4,17.8,16.7,16.1,16.7z"/>
</g>
</svg>
