<?xml version="1.0" standalone="no"?>
<!DOCTYPE svg PUBLIC "-//W3C//DTD SVG 20010904//EN"
 "http://www.w3.org/TR/2001/REC-SVG-20010904/DTD/svg10.dtd">
<svg version="1.0" xmlns="http://www.w3.org/2000/svg"
 width="200.000000pt" height="200.000000pt" viewBox="0 0 200.000000 200.000000"
 preserveAspectRatio="xMidYMid meet">
<metadata>
Created by potrace 1.11, written by Peter Selinger 2001-2013
</metadata>
<g transform="translate(0.000000,200.000000) scale(0.100000,-0.100000)"
fill="#000000" stroke="none">
<path d="M855 1874 c-418 -89 -713 -443 -719 -859 -1 -138 7 -200 39 -298 92
-282 309 -499 585 -586 99 -31 115 -33 260 -37 117 -2 147 0 230 22 308 79
543 297 639 592 36 108 46 182 44 310 -7 400 -285 745 -683 846 -109 28 -291
33 -395 10z m418 -164 c165 -55 302 -162 398 -308 164 -251 162 -583 -5 -834
-97 -147 -267 -268 -438 -314 -95 -26 -274 -27 -372 -3 -272 67 -485 276 -558
548 -29 109 -29 278 0 384 44 156 133 296 249 389 162 131 308 180 513 174 99
-2 129 -8 213 -36z"/>
<path d="M738 1272 c-62 -31 -75 -114 -24 -161 47 -44 133 -28 156 30 36 87
-50 172 -132 131z"/>
<path d="M1252 1274 c-64 -26 -83 -108 -37 -158 13 -14 32 -27 42 -28 10 0 25
-2 33 -3 29 -3 71 26 87 59 19 41 12 79 -23 111 -31 29 -64 35 -102 19z"/>
<path d="M660 703 c-31 -12 -50 -37 -50 -69 0 -69 174 -181 325 -209 58 -11
173 -6 232 9 85 22 142 49 211 100 85 63 101 100 64 146 -27 33 -74 29 -117
-9 -160 -140 -399 -147 -559 -16 -56 45 -81 57 -106 48z"/>
</g>
</svg>
